<?xml version="1.0" standalone="no"?>
<!DOCTYPE svg PUBLIC "-//W3C//DTD SVG 20010904//EN"
 "http://www.w3.org/TR/2001/REC-SVG-20010904/DTD/svg10.dtd">
<svg version="1.0" xmlns="http://www.w3.org/2000/svg"
 width="300.000000pt" height="300.000000pt" viewBox="0 0 300.000000 300.000000"
 preserveAspectRatio="xMidYMid meet">
<metadata>
Created by potrace 1.14, written by Peter Selinger 2001-2017
</metadata>
<g transform="translate(0.000000,300.000000) scale(0.100000,-0.100000)"
fill="#000000" stroke="none">
<path d="M1966 2684 c-9 -9 -16 -33 -17 -57 -2 -126 -30 -212 -89 -280 -22
-25 -85 -73 -140 -107 -99 -61 -165 -120 -201 -179 -25 -41 -56 -142 -64 -208
l-7 -53 -683 0 c-608 0 -685 -2 -699 -16 -14 -14 -16 -85 -16 -635 l0 -620
115 -114 114 -115 1221 0 1220 0 115 115 115 116 0 618 c0 586 -1 619 -18 634
-17 16 -80 17 -700 17 l-682 0 6 53 c16 136 78 219 234 314 83 50 146 107 187
168 32 46 63 161 70 251 4 67 2 83 -12 97 -21 21 -49 22 -69 1z m884 -1534 l0
-550 -1350 0 -1350 0 0 550 0 550 1350 0 1350 0 0 -550z m-80 -654 c0 -3 -21
-25 -46 -50 l-46 -46 -1179 0 -1180 0 -44 45 c-25 24 -45 47 -45 50 0 3 572 5
1270 5 699 0 1270 -2 1270 -4z"/>
<path d="M366 1484 c-13 -12 -16 -40 -16 -134 0 -154 -4 -150 150 -150 154 0
150 -4 150 149 0 154 3 151 -153 151 -92 0 -119 -3 -131 -16z m184 -134 l0
-50 -50 0 -50 0 0 50 0 50 50 0 50 0 0 -50z"/>
<path d="M766 1484 c-13 -12 -16 -40 -16 -134 0 -154 -4 -150 150 -150 154 0
150 -4 150 149 0 154 3 151 -153 151 -92 0 -119 -3 -131 -16z m184 -134 l0
-50 -50 0 -50 0 0 50 0 50 50 0 50 0 0 -50z"/>
<path d="M1166 1484 c-13 -12 -16 -40 -16 -134 0 -154 -4 -150 150 -150 154 0
150 -4 150 149 0 154 3 151 -153 151 -92 0 -119 -3 -131 -16z m184 -134 l0
-50 -50 0 -50 0 0 50 0 50 50 0 50 0 0 -50z"/>
<path d="M1566 1484 c-13 -12 -16 -40 -16 -134 0 -154 -4 -150 150 -150 154 0
150 -4 150 149 0 154 3 151 -153 151 -92 0 -119 -3 -131 -16z m184 -134 l0
-50 -50 0 -50 0 0 50 0 50 50 0 50 0 0 -50z"/>
<path d="M1966 1484 c-13 -12 -16 -40 -16 -134 0 -154 -4 -150 150 -150 154 0
150 -4 150 149 0 154 3 151 -153 151 -92 0 -119 -3 -131 -16z m184 -134 l0
-50 -50 0 -50 0 0 50 0 50 50 0 50 0 0 -50z"/>
<path d="M2367 1482 c-14 -15 -17 -41 -17 -135 0 -151 -4 -147 150 -147 154 0
150 -4 150 149 0 154 3 151 -152 151 -99 0 -117 -3 -131 -18z m183 -132 l0
-50 -50 0 -50 0 0 50 0 50 50 0 50 0 0 -50z"/>
<path d="M366 1084 c-13 -12 -16 -40 -16 -134 0 -154 -4 -150 150 -150 154 0
150 -4 150 149 0 154 3 151 -153 151 -92 0 -119 -3 -131 -16z m184 -134 l0
-50 -50 0 -50 0 0 50 0 50 50 0 50 0 0 -50z"/>
<path d="M766 1084 c-13 -12 -16 -40 -16 -134 0 -154 -4 -150 150 -150 154 0
150 -4 150 149 0 154 3 151 -153 151 -92 0 -119 -3 -131 -16z m184 -134 l0
-50 -50 0 -50 0 0 50 0 50 50 0 50 0 0 -50z"/>
<path d="M1166 1084 c-23 -23 -23 -245 0 -268 13 -14 58 -16 334 -16 276 0
321 2 334 16 13 12 16 39 16 133 0 102 -3 120 -18 134 -16 15 -55 17 -335 17
-274 0 -318 -2 -331 -16z m584 -134 l0 -50 -250 0 -250 0 0 50 0 50 250 0 250
0 0 -50z"/>
<path d="M1968 1086 c-15 -11 -18 -31 -18 -134 0 -96 3 -124 16 -136 12 -13
40 -16 134 -16 154 0 150 -4 150 149 0 154 3 151 -151 151 -79 -1 -119 -5
-131 -14z m182 -136 l0 -50 -50 0 -50 0 0 50 0 50 50 0 50 0 0 -50z"/>
<path d="M2366 1084 c-13 -12 -16 -40 -16 -134 0 -154 -4 -150 150 -150 154 0
150 -4 150 149 0 154 3 151 -153 151 -92 0 -119 -3 -131 -16z m184 -134 l0
-50 -50 0 -50 0 0 50 0 50 50 0 50 0 0 -50z"/>
</g>
</svg>
