<svg
   width="300"
   height="300"
   viewBox="0 0 300.00001 300"
   version="1.1">
  <g
     transform="translate(0,-752.36216)">
    <path
       d="m 199.88446,782.33153 c -2.7591,0.042 -4.9626,2.3111 -4.9238,5.0703 0,14.30551 -2.8916,22.44631 -6.8809,28.03131 -3.9893,5.5851 -9.4414,8.9316 -15.6914,12.6816 -6.25,3.75 -13.2979,7.9035 -18.6836,15.4434 -4.7913,6.7079 -7.9702,15.8559 -8.6152,28.8418 l -135.1250027,0 0,0 c -2.7613,3e-4 -4.9997,2.2387 -5,5 l 0,119.99999 c 8e-4,1.3253 0.5276,2.5961 1.4648,3.53317 l 0,0 19.9999997,20.0001 c 0.938,0.9381 2.2104,1.4651 3.5371,1.4648 l 240.000003,0 c 1.326,-3e-4 2.5975,-0.5271 3.5351,-1.4648 l 19.5098,-19.5099 c 0.1754,-0.1334 0.3418,-0.2782 0.4981,-0.4336 0.03,-0.028 0.059,-0.056 0.088,-0.084 l 0.012,-0.01 0.016,-0.018 c 1.0991,-1.13387 1.598,-2.72037 1.3457,-4.27927 l 0,-119.20309 c -3e-4,-2.7613 -2.2387,-4.9997 -5,-5 l -134.875,0 c 0.5999,-11.2645 3.2532,-18.1311 6.7519,-23.0293 3.9894,-5.585 9.4415,-8.9317 15.6915,-12.6817 6.25,-3.75 13.2978,-7.9033 18.6835,-15.4433 5.3857,-7.5399 8.7442,-18.1494 8.7442,-33.84381 0.04,-2.8188 -2.2574,-5.1133 -5.0762,-5.0703 z m -184.923803,100.0703 270.000003,0 0,110 -270.000003,0 z m 25,20 c -2.7613,3e-4 -4.9997,2.2387 -5,5 l 0,20 c 3e-4,2.7613 2.2387,4.9997 5,5 l 20,0 c 2.7613,-3e-4 4.9997,-2.2387 5,-5 l 0,-20 c -3e-4,-2.7613 -2.2387,-4.9997 -5,-5 z m 40,0 c -2.7613,3e-4 -4.9997,2.2387 -5,5 l 0,20 c 3e-4,2.7613 2.2387,4.9997 5,5 l 20,0 c 2.761303,-3e-4 4.999703,-2.2387 5.000003,-5 l 0,-20 c -3e-4,-2.7613 -2.2387,-4.9997 -5.000003,-5 z m 40.000003,0 c -2.7613,3e-4 -4.9997,2.2387 -5,5 l 0,20 c 3e-4,2.7613 2.2387,4.9997 5,5 l 20,0 c 2.7613,-3e-4 4.9997,-2.2387 5,-5 l 0,-20 c -3e-4,-2.7613 -2.2387,-4.9997 -5,-5 z m 40,0 c -2.7613,3e-4 -4.9997,2.2387 -5,5 l 0,20 c 3e-4,2.7613 2.2387,4.9997 5,5 l 20,0 c 2.7613,-3e-4 4.9997,-2.2387 5,-5 l 0,-20 c -3e-4,-2.7613 -2.2387,-4.9997 -5,-5 z m 40,0 c -2.7613,3e-4 -4.9997,2.2387 -5,5 l 0,20 c 3e-4,2.7613 2.2387,4.9997 5,5 l 20,0 c 2.7613,-3e-4 4.9997,-2.2387 5,-5 l 0,-20 c -3e-4,-2.7613 -2.2387,-4.9997 -5,-5 z m 40,0 c -2.7613,3e-4 -4.9997,2.2387 -5,5 l 0,20 c 3e-4,2.7613 2.2387,4.9997 5,5 l 20,0 c 2.7613,-3e-4 4.9997,-2.2387 5,-5 l 0,-20 c -3e-4,-2.7613 -2.2387,-4.9997 -5,-5 z m -195.000003,10 10,0 0,10 -10,0 z m 40,0 10,0 0,10 -10,0 z m 40.000003,0 10,0 0,10 -10,0 z m 40,0 10,0 0,10 -10,0 z m 40,0 10,0 0,10 -10,0 z m 40,0 10,0 0,10 -10,0 z m -124.9961,29.9981 0,0 c -2.7613,3e-4 -4.9997,2.2387 -5,5 l 0,20 c 3e-4,2.7613 2.2387,4.9997 5,5 l 59.1816,0 c 1.596,0.2637 3.2209,-0.261 4.3614,-1.4082 0.03,-0.028 0.059,-0.056 0.088,-0.084 l 0.012,-0.01 0.016,-0.018 c 1.0991,-1.1339 1.598,-2.7204 1.3457,-4.2793 l 0,-19.2031 c -3e-4,-2.7613 -2.2387,-4.9997 -5,-5 z m -80.003903,0 c -2.7613,3e-4 -4.9997,2.2387 -5,5 l 0,20 c 3e-4,2.7613 2.2387,4.9997 5,5 l 20,0 c 2.7613,-3e-4 4.9997,-2.2387 5,-5 l 0,-20 c -3e-4,-2.7613 -2.2387,-4.9997 -5,-5 z m 40,0 c -2.7613,3e-4 -4.9997,2.2387 -5,5 l 0,20 c 3e-4,2.7613 2.2387,4.9997 5,5 l 20,0 c 2.761303,-3e-4 4.999703,-2.2387 5.000003,-5 l 0,-20 c -3e-4,-2.7613 -2.2387,-4.9997 -5.000003,-5 z m 120.000003,0 c -2.7613,3e-4 -4.9997,2.2387 -5,5 l 0,20 c 3e-4,2.7613 2.2387,4.9997 5,5 l 20,0 c 2.7613,-3e-4 4.9997,-2.2387 5,-5 l 0,-20 c -3e-4,-2.7613 -2.2387,-4.9997 -5,-5 z m 40,0 c -2.7613,3e-4 -4.9997,2.2387 -5,5 l 0,20 c 3e-4,2.7613 2.2387,4.9997 5,5 l 20,0 c 2.7613,-3e-4 4.9997,-2.2387 5,-5 l 0,-20 c -3e-4,-2.7613 -2.2387,-4.9997 -5,-5 z m -195.000003,10 10,0 0,10 -10,0 z m 40,0 10,0 0,10 -10,0 z m 40.000003,0 50,0 0,10 -50,0 z m 80,0 10,0 0,10 -10,0 z m 40,0 10,0 0,10 -10,0 z m -222.929703,49.99997 255.857403,0 -10,10.0001 -235.857403,0 z"
       style="color:black;font-style:normal;font-variant:normal;font-weight:normal;font-stretch:normal;font-size:medium;line-height:normal;font-family:sans-serif;text-indent:0;text-align:start;text-decoration:none;text-decoration-line:none;text-decoration-style:solid;text-decoration-color:black;letter-spacing:normal;word-spacing:normal;text-transform:none;direction:ltr;block-progression:tb;writing-mode:lr-tb;baseline-shift:baseline;text-anchor:start;white-space:normal;clip-rule:nonzero;display:inline;overflow:visible;visibility:visible;opacity:1;isolation:auto;mix-blend-mode:normal;color-interpolation:sRGB;color-interpolation-filters:linearRGB;solid-color:black;solid-opacity:1;fill:black;fill-opacity:1;fill-rule:evenodd;stroke:none;stroke-width:10;stroke-linecap:round;stroke-linejoin:round;stroke-miterlimit:4;stroke-dasharray:none;stroke-dashoffset:0;stroke-opacity:1;marker:none;color-rendering:auto;image-rendering:auto;shape-rendering:auto;text-rendering:auto;enable-background:accumulate" />
  </g>
</svg>
